<svg width="1200" height="344" viewBox="0 0 1200 344" fill="none" xmlns="http://www.w3.org/2000/svg">
<rect width="1200" height="344" rx="24.8718" fill="url(#paint0_linear_30_5814)"/>
<g clip-path="url(#clip0_30_5814)">
<path opacity="0.12" d="M36.0448 26H-93.0448C-113.198 26 -131.821 35.9077 -141.898 51.9909L-206.442 155.009C-216.519 171.092 -216.519 190.908 -206.442 206.991L-141.898 310.009C-131.821 326.092 -113.198 336 -93.0448 336H36.0447C56.1982 336 74.8209 326.092 84.8976 310.009L149.442 206.991C159.519 190.908 159.519 171.092 149.442 155.009L84.8976 51.9909C74.8209 35.9077 56.1983 26 36.0448 26Z" fill="url(#paint1_linear_30_5814)"/>
</g>
<mask id="mask0_30_5814" style="mask-type:alpha" maskUnits="userSpaceOnUse" x="0" y="0" width="1200" height="344">
<rect width="1200" height="344" rx="24.8718" fill="url(#paint2_linear_30_5814)"/>
</mask>
<g mask="url(#mask0_30_5814)">
<path opacity="0.12" d="M1176.23 177H1101.77C1090.14 177 1079.4 183.2 1073.59 193.265L1036.36 257.735C1030.55 267.8 1030.55 280.2 1036.36 290.265L1073.59 354.735C1079.4 364.8 1090.14 371 1101.77 371H1176.23C1187.86 371 1198.6 364.8 1204.41 354.735L1241.64 290.265C1247.45 280.2 1247.45 267.8 1241.64 257.735L1204.41 193.265C1198.6 183.2 1187.86 177 1176.23 177Z" fill="url(#paint3_linear_30_5814)"/>
</g>
<defs>
<linearGradient id="paint0_linear_30_5814" x1="286.454" y1="65.9931" x2="1030.21" y2="554.558" gradientUnits="userSpaceOnUse">
<stop stop-color="#1B8036"/>
<stop offset="0.790121" stop-color="#083F1A" stop-opacity="0.92"/>
<stop offset="1" stop-color="#083F1A" stop-opacity="0.86"/>
</linearGradient>
<linearGradient id="paint1_linear_30_5814" x1="-214" y1="336" x2="157" y2="336" gradientUnits="userSpaceOnUse">
<stop stop-color="#A9FFB2"/>
<stop offset="1" stop-color="#59FF7E"/>
</linearGradient>
<linearGradient id="paint2_linear_30_5814" x1="286.454" y1="65.9931" x2="1030.21" y2="554.558" gradientUnits="userSpaceOnUse">
<stop stop-color="#1B8036"/>
<stop offset="0.790121" stop-color="#083F1A" stop-opacity="0.92"/>
<stop offset="1" stop-color="#083F1A" stop-opacity="0.86"/>
</linearGradient>
<linearGradient id="paint3_linear_30_5814" x1="1032" y1="371" x2="1246" y2="371" gradientUnits="userSpaceOnUse">
<stop stop-color="#A9FFB2"/>
<stop offset="1" stop-color="#59FF7E"/>
</linearGradient>
<clipPath id="clip0_30_5814">
<rect width="157" height="336" fill="white"/>
</clipPath>
</defs>
</svg>
